<mxfile host="app.diagrams.net" modified="2022-12-26T03:02:37.190Z" agent="5.0 (Windows NT 10.0; Win64; x64) AppleWebKit/537.36 (KHTML, like Gecko) Chrome/108.0.0.0 Safari/537.36 Edg/108.0.1462.46" version="20.6.0" etag="Ll3qHlkFAbxwnsEBYRlc" type="github">
  <diagram id="sD3__ZA0V06Uu1ZkGcOJ" name="Trang-1">
    <mxGraphModel dx="2512" dy="794" grid="1" gridSize="10" guides="1" tooltips="1" connect="1" arrows="1" fold="1" page="1" pageScale="1" pageWidth="850" pageHeight="1100" math="0" shadow="0">
      <root>
        <mxCell id="0" />
        <mxCell id="1" parent="0" />
        <mxCell id="Q-uiYUDnbDU2gFhlFFUQ-1" value="Ceph admin &amp;amp; ansible admin" style="whiteSpace=wrap;html=1;aspect=fixed;" vertex="1" parent="1">
          <mxGeometry x="40" y="210" width="160" height="160" as="geometry" />
        </mxCell>
        <mxCell id="Q-uiYUDnbDU2gFhlFFUQ-2" value="ceph osd &amp;amp; mon" style="whiteSpace=wrap;html=1;aspect=fixed;" vertex="1" parent="1">
          <mxGeometry x="320" y="210" width="160" height="160" as="geometry" />
        </mxCell>
        <mxCell id="Q-uiYUDnbDU2gFhlFFUQ-3" value="ceph osd &amp;amp; mon" style="whiteSpace=wrap;html=1;aspect=fixed;" vertex="1" parent="1">
          <mxGeometry x="600" y="210" width="160" height="160" as="geometry" />
        </mxCell>
        <mxCell id="Q-uiYUDnbDU2gFhlFFUQ-6" value="eth1" style="whiteSpace=wrap;html=1;aspect=fixed;" vertex="1" parent="1">
          <mxGeometry x="40" y="320" width="50" height="50" as="geometry" />
        </mxCell>
        <mxCell id="Q-uiYUDnbDU2gFhlFFUQ-7" value="eth2" style="whiteSpace=wrap;html=1;aspect=fixed;" vertex="1" parent="1">
          <mxGeometry x="150" y="320" width="50" height="50" as="geometry" />
        </mxCell>
        <mxCell id="Q-uiYUDnbDU2gFhlFFUQ-9" value="eth0" style="whiteSpace=wrap;html=1;aspect=fixed;" vertex="1" parent="1">
          <mxGeometry x="95" y="210" width="50" height="50" as="geometry" />
        </mxCell>
        <mxCell id="Q-uiYUDnbDU2gFhlFFUQ-10" value="eth1" style="whiteSpace=wrap;html=1;aspect=fixed;" vertex="1" parent="1">
          <mxGeometry x="320" y="320" width="50" height="50" as="geometry" />
        </mxCell>
        <mxCell id="Q-uiYUDnbDU2gFhlFFUQ-11" value="eth2" style="whiteSpace=wrap;html=1;aspect=fixed;" vertex="1" parent="1">
          <mxGeometry x="430" y="320" width="50" height="50" as="geometry" />
        </mxCell>
        <mxCell id="Q-uiYUDnbDU2gFhlFFUQ-12" value="eth0" style="whiteSpace=wrap;html=1;aspect=fixed;" vertex="1" parent="1">
          <mxGeometry x="370" y="210" width="50" height="50" as="geometry" />
        </mxCell>
        <mxCell id="Q-uiYUDnbDU2gFhlFFUQ-13" value="eth1" style="whiteSpace=wrap;html=1;aspect=fixed;" vertex="1" parent="1">
          <mxGeometry x="600" y="320" width="50" height="50" as="geometry" />
        </mxCell>
        <mxCell id="Q-uiYUDnbDU2gFhlFFUQ-14" value="eth2" style="whiteSpace=wrap;html=1;aspect=fixed;" vertex="1" parent="1">
          <mxGeometry x="710" y="320" width="50" height="50" as="geometry" />
        </mxCell>
        <mxCell id="Q-uiYUDnbDU2gFhlFFUQ-15" value="eth0" style="whiteSpace=wrap;html=1;aspect=fixed;" vertex="1" parent="1">
          <mxGeometry x="655" y="210" width="50" height="50" as="geometry" />
        </mxCell>
        <mxCell id="Q-uiYUDnbDU2gFhlFFUQ-16" value="" style="endArrow=none;html=1;rounded=0;fillColor=#FF3333;" edge="1" parent="1">
          <mxGeometry width="50" height="50" relative="1" as="geometry">
            <mxPoint y="130" as="sourcePoint" />
            <mxPoint x="850" y="130" as="targetPoint" />
          </mxGeometry>
        </mxCell>
        <mxCell id="Q-uiYUDnbDU2gFhlFFUQ-17" value="&lt;h2&gt;&lt;font style=&quot;font-size: 18px;&quot;&gt;eth0: 172.16.5.0/16&lt;/font&gt;&lt;/h2&gt;" style="text;html=1;align=center;verticalAlign=middle;resizable=0;points=[];autosize=1;strokeColor=none;fillColor=none;" vertex="1" parent="1">
          <mxGeometry x="-20" y="85" width="180" height="60" as="geometry" />
        </mxCell>
        <mxCell id="Q-uiYUDnbDU2gFhlFFUQ-18" value="" style="endArrow=classic;startArrow=classic;html=1;rounded=0;exitX=0.5;exitY=0;exitDx=0;exitDy=0;" edge="1" parent="1" source="Q-uiYUDnbDU2gFhlFFUQ-9">
          <mxGeometry width="50" height="50" relative="1" as="geometry">
            <mxPoint x="70" y="180" as="sourcePoint" />
            <mxPoint x="120" y="130" as="targetPoint" />
          </mxGeometry>
        </mxCell>
        <mxCell id="Q-uiYUDnbDU2gFhlFFUQ-19" value="" style="endArrow=classic;startArrow=classic;html=1;rounded=0;exitX=0.5;exitY=0;exitDx=0;exitDy=0;" edge="1" parent="1">
          <mxGeometry width="50" height="50" relative="1" as="geometry">
            <mxPoint x="399.5" y="210" as="sourcePoint" />
            <mxPoint x="399.5" y="130" as="targetPoint" />
          </mxGeometry>
        </mxCell>
        <mxCell id="Q-uiYUDnbDU2gFhlFFUQ-20" value="" style="endArrow=classic;startArrow=classic;html=1;rounded=0;exitX=0.5;exitY=0;exitDx=0;exitDy=0;" edge="1" parent="1">
          <mxGeometry width="50" height="50" relative="1" as="geometry">
            <mxPoint x="679.5" y="210" as="sourcePoint" />
            <mxPoint x="679.5" y="130" as="targetPoint" />
          </mxGeometry>
        </mxCell>
        <mxCell id="Q-uiYUDnbDU2gFhlFFUQ-21" value="" style="endArrow=none;html=1;rounded=0;fontSize=14;" edge="1" parent="1">
          <mxGeometry width="50" height="50" relative="1" as="geometry">
            <mxPoint y="450" as="sourcePoint" />
            <mxPoint x="860" y="450" as="targetPoint" />
          </mxGeometry>
        </mxCell>
        <mxCell id="Q-uiYUDnbDU2gFhlFFUQ-22" value="" style="endArrow=classic;startArrow=classic;html=1;rounded=0;exitX=0.5;exitY=0;exitDx=0;exitDy=0;" edge="1" parent="1">
          <mxGeometry width="50" height="50" relative="1" as="geometry">
            <mxPoint x="50" y="450" as="sourcePoint" />
            <mxPoint x="50" y="370" as="targetPoint" />
          </mxGeometry>
        </mxCell>
        <mxCell id="Q-uiYUDnbDU2gFhlFFUQ-23" value="" style="endArrow=classic;startArrow=classic;html=1;rounded=0;exitX=0.5;exitY=0;exitDx=0;exitDy=0;" edge="1" parent="1">
          <mxGeometry width="50" height="50" relative="1" as="geometry">
            <mxPoint x="344.5" y="450" as="sourcePoint" />
            <mxPoint x="344.5" y="370" as="targetPoint" />
          </mxGeometry>
        </mxCell>
        <mxCell id="Q-uiYUDnbDU2gFhlFFUQ-24" value="" style="endArrow=classic;startArrow=classic;html=1;rounded=0;exitX=0.5;exitY=0;exitDx=0;exitDy=0;" edge="1" parent="1">
          <mxGeometry width="50" height="50" relative="1" as="geometry">
            <mxPoint x="624.5" y="450" as="sourcePoint" />
            <mxPoint x="624.5" y="370" as="targetPoint" />
          </mxGeometry>
        </mxCell>
        <mxCell id="Q-uiYUDnbDU2gFhlFFUQ-25" value="&lt;h2&gt;&lt;font style=&quot;font-size: 18px;&quot;&gt;eth1: 172.16.15.0/24&lt;/font&gt;&lt;/h2&gt;" style="text;html=1;align=center;verticalAlign=middle;resizable=0;points=[];autosize=1;strokeColor=none;fillColor=none;fontSize=14;" vertex="1" parent="1">
          <mxGeometry x="-15" y="430" width="190" height="70" as="geometry" />
        </mxCell>
        <mxCell id="Q-uiYUDnbDU2gFhlFFUQ-26" value="" style="endArrow=none;html=1;rounded=0;fontSize=14;" edge="1" parent="1">
          <mxGeometry width="50" height="50" relative="1" as="geometry">
            <mxPoint x="-30" y="530" as="sourcePoint" />
            <mxPoint x="880" y="530" as="targetPoint" />
          </mxGeometry>
        </mxCell>
        <mxCell id="Q-uiYUDnbDU2gFhlFFUQ-27" value="" style="endArrow=classic;startArrow=classic;html=1;rounded=0;entryX=0.5;entryY=1;entryDx=0;entryDy=0;" edge="1" parent="1" target="Q-uiYUDnbDU2gFhlFFUQ-7">
          <mxGeometry width="50" height="50" relative="1" as="geometry">
            <mxPoint x="175" y="530" as="sourcePoint" />
            <mxPoint x="60" y="380" as="targetPoint" />
          </mxGeometry>
        </mxCell>
        <mxCell id="Q-uiYUDnbDU2gFhlFFUQ-28" value="" style="endArrow=classic;startArrow=classic;html=1;rounded=0;entryX=0.5;entryY=1;entryDx=0;entryDy=0;" edge="1" parent="1">
          <mxGeometry width="50" height="50" relative="1" as="geometry">
            <mxPoint x="450" y="530" as="sourcePoint" />
            <mxPoint x="450" y="370" as="targetPoint" />
          </mxGeometry>
        </mxCell>
        <mxCell id="Q-uiYUDnbDU2gFhlFFUQ-29" value="" style="endArrow=classic;startArrow=classic;html=1;rounded=0;entryX=0.5;entryY=1;entryDx=0;entryDy=0;" edge="1" parent="1">
          <mxGeometry width="50" height="50" relative="1" as="geometry">
            <mxPoint x="734.5" y="530" as="sourcePoint" />
            <mxPoint x="734.5" y="370" as="targetPoint" />
          </mxGeometry>
        </mxCell>
        <mxCell id="Q-uiYUDnbDU2gFhlFFUQ-31" value="&lt;h2 style=&quot;color: rgb(0, 0, 0); font-family: Helvetica; font-style: normal; font-variant-ligatures: normal; font-variant-caps: normal; letter-spacing: normal; orphans: 2; text-align: center; text-indent: 0px; text-transform: none; widows: 2; word-spacing: 0px; -webkit-text-stroke-width: 0px; background-color: rgb(248, 249, 250); text-decoration-thickness: initial; text-decoration-style: initial; text-decoration-color: initial;&quot;&gt;&lt;font style=&quot;font-size: 18px;&quot;&gt;eth2: 172.16.15.0/24&lt;/font&gt;&lt;/h2&gt;" style="text;whiteSpace=wrap;html=1;fontSize=18;" vertex="1" parent="1">
          <mxGeometry y="510" width="200" height="100" as="geometry" />
        </mxCell>
        <mxCell id="Q-uiYUDnbDU2gFhlFFUQ-33" value="&lt;font style=&quot;font-size: 18px;&quot;&gt;- eth0: dùng để kết nối với internet&lt;br&gt;- eth1: dùng để làm ceph public, truy cập vào dashboard&lt;br&gt;- eth2: dùng để làm ceph replication&lt;/font&gt;" style="text;html=1;align=center;verticalAlign=middle;resizable=0;points=[];autosize=1;strokeColor=none;fillColor=none;fontSize=14;" vertex="1" parent="1">
          <mxGeometry x="110" y="640" width="470" height="80" as="geometry" />
        </mxCell>
        <mxCell id="Q-uiYUDnbDU2gFhlFFUQ-92" value="Ceph admin &amp;amp; mon" style="whiteSpace=wrap;html=1;aspect=fixed;" vertex="1" parent="1">
          <mxGeometry x="70" y="930" width="160" height="160" as="geometry" />
        </mxCell>
        <mxCell id="Q-uiYUDnbDU2gFhlFFUQ-93" value="ceph osd &amp;amp; mon" style="whiteSpace=wrap;html=1;aspect=fixed;" vertex="1" parent="1">
          <mxGeometry x="350" y="930" width="160" height="160" as="geometry" />
        </mxCell>
        <mxCell id="Q-uiYUDnbDU2gFhlFFUQ-94" value="ceph osd &amp;amp; mon" style="whiteSpace=wrap;html=1;aspect=fixed;" vertex="1" parent="1">
          <mxGeometry x="630" y="930" width="160" height="160" as="geometry" />
        </mxCell>
        <mxCell id="Q-uiYUDnbDU2gFhlFFUQ-95" value="eth1" style="whiteSpace=wrap;html=1;aspect=fixed;" vertex="1" parent="1">
          <mxGeometry x="70" y="1040" width="50" height="50" as="geometry" />
        </mxCell>
        <mxCell id="Q-uiYUDnbDU2gFhlFFUQ-96" value="eth2" style="whiteSpace=wrap;html=1;aspect=fixed;" vertex="1" parent="1">
          <mxGeometry x="180" y="1040" width="50" height="50" as="geometry" />
        </mxCell>
        <mxCell id="Q-uiYUDnbDU2gFhlFFUQ-97" value="eth0" style="whiteSpace=wrap;html=1;aspect=fixed;" vertex="1" parent="1">
          <mxGeometry x="125" y="930" width="50" height="50" as="geometry" />
        </mxCell>
        <mxCell id="Q-uiYUDnbDU2gFhlFFUQ-98" value="eth1" style="whiteSpace=wrap;html=1;aspect=fixed;" vertex="1" parent="1">
          <mxGeometry x="350" y="1040" width="50" height="50" as="geometry" />
        </mxCell>
        <mxCell id="Q-uiYUDnbDU2gFhlFFUQ-99" value="eth2" style="whiteSpace=wrap;html=1;aspect=fixed;" vertex="1" parent="1">
          <mxGeometry x="460" y="1040" width="50" height="50" as="geometry" />
        </mxCell>
        <mxCell id="Q-uiYUDnbDU2gFhlFFUQ-100" value="eth0" style="whiteSpace=wrap;html=1;aspect=fixed;" vertex="1" parent="1">
          <mxGeometry x="400" y="930" width="50" height="50" as="geometry" />
        </mxCell>
        <mxCell id="Q-uiYUDnbDU2gFhlFFUQ-101" value="eth1" style="whiteSpace=wrap;html=1;aspect=fixed;" vertex="1" parent="1">
          <mxGeometry x="630" y="1040" width="50" height="50" as="geometry" />
        </mxCell>
        <mxCell id="Q-uiYUDnbDU2gFhlFFUQ-102" value="eth2" style="whiteSpace=wrap;html=1;aspect=fixed;" vertex="1" parent="1">
          <mxGeometry x="740" y="1040" width="50" height="50" as="geometry" />
        </mxCell>
        <mxCell id="Q-uiYUDnbDU2gFhlFFUQ-103" value="eth0" style="whiteSpace=wrap;html=1;aspect=fixed;" vertex="1" parent="1">
          <mxGeometry x="685" y="930" width="50" height="50" as="geometry" />
        </mxCell>
        <mxCell id="Q-uiYUDnbDU2gFhlFFUQ-104" value="" style="endArrow=none;html=1;rounded=0;fillColor=#FF3333;" edge="1" parent="1">
          <mxGeometry width="50" height="50" relative="1" as="geometry">
            <mxPoint x="-290" y="850" as="sourcePoint" />
            <mxPoint x="880" y="850" as="targetPoint" />
          </mxGeometry>
        </mxCell>
        <mxCell id="Q-uiYUDnbDU2gFhlFFUQ-105" value="&lt;h2&gt;&lt;font style=&quot;font-size: 18px;&quot;&gt;eth0: 172.16.5.0/16&lt;/font&gt;&lt;/h2&gt;" style="text;html=1;align=center;verticalAlign=middle;resizable=0;points=[];autosize=1;strokeColor=none;fillColor=none;" vertex="1" parent="1">
          <mxGeometry x="10" y="805" width="180" height="60" as="geometry" />
        </mxCell>
        <mxCell id="Q-uiYUDnbDU2gFhlFFUQ-106" value="" style="endArrow=classic;startArrow=classic;html=1;rounded=0;exitX=0.5;exitY=0;exitDx=0;exitDy=0;" edge="1" parent="1" source="Q-uiYUDnbDU2gFhlFFUQ-97">
          <mxGeometry width="50" height="50" relative="1" as="geometry">
            <mxPoint x="100" y="900" as="sourcePoint" />
            <mxPoint x="150" y="850" as="targetPoint" />
          </mxGeometry>
        </mxCell>
        <mxCell id="Q-uiYUDnbDU2gFhlFFUQ-107" value="" style="endArrow=classic;startArrow=classic;html=1;rounded=0;exitX=0.5;exitY=0;exitDx=0;exitDy=0;" edge="1" parent="1">
          <mxGeometry width="50" height="50" relative="1" as="geometry">
            <mxPoint x="429.5" y="930" as="sourcePoint" />
            <mxPoint x="429.5" y="850" as="targetPoint" />
          </mxGeometry>
        </mxCell>
        <mxCell id="Q-uiYUDnbDU2gFhlFFUQ-108" value="" style="endArrow=classic;startArrow=classic;html=1;rounded=0;exitX=0.5;exitY=0;exitDx=0;exitDy=0;" edge="1" parent="1">
          <mxGeometry width="50" height="50" relative="1" as="geometry">
            <mxPoint x="709.5" y="930" as="sourcePoint" />
            <mxPoint x="709.5" y="850" as="targetPoint" />
          </mxGeometry>
        </mxCell>
        <mxCell id="Q-uiYUDnbDU2gFhlFFUQ-109" value="" style="endArrow=none;html=1;rounded=0;fontSize=14;" edge="1" parent="1">
          <mxGeometry width="50" height="50" relative="1" as="geometry">
            <mxPoint x="-280" y="1170" as="sourcePoint" />
            <mxPoint x="890" y="1170" as="targetPoint" />
          </mxGeometry>
        </mxCell>
        <mxCell id="Q-uiYUDnbDU2gFhlFFUQ-110" value="" style="endArrow=classic;startArrow=classic;html=1;rounded=0;exitX=0.5;exitY=0;exitDx=0;exitDy=0;" edge="1" parent="1">
          <mxGeometry width="50" height="50" relative="1" as="geometry">
            <mxPoint x="-180" y="1170" as="sourcePoint" />
            <mxPoint x="-180" y="1090" as="targetPoint" />
          </mxGeometry>
        </mxCell>
        <mxCell id="Q-uiYUDnbDU2gFhlFFUQ-111" value="" style="endArrow=classic;startArrow=classic;html=1;rounded=0;exitX=0.5;exitY=0;exitDx=0;exitDy=0;" edge="1" parent="1">
          <mxGeometry width="50" height="50" relative="1" as="geometry">
            <mxPoint x="374.5" y="1170" as="sourcePoint" />
            <mxPoint x="374.5" y="1090" as="targetPoint" />
          </mxGeometry>
        </mxCell>
        <mxCell id="Q-uiYUDnbDU2gFhlFFUQ-112" value="" style="endArrow=classic;startArrow=classic;html=1;rounded=0;exitX=0.5;exitY=0;exitDx=0;exitDy=0;" edge="1" parent="1">
          <mxGeometry width="50" height="50" relative="1" as="geometry">
            <mxPoint x="654.5" y="1170" as="sourcePoint" />
            <mxPoint x="654.5" y="1090" as="targetPoint" />
          </mxGeometry>
        </mxCell>
        <mxCell id="Q-uiYUDnbDU2gFhlFFUQ-113" value="&lt;h2&gt;&lt;font style=&quot;font-size: 18px;&quot;&gt;eth1: 172.16.15.0/24&lt;/font&gt;&lt;/h2&gt;" style="text;html=1;align=center;verticalAlign=middle;resizable=0;points=[];autosize=1;strokeColor=none;fillColor=none;fontSize=14;" vertex="1" parent="1">
          <mxGeometry x="15" y="1150" width="190" height="70" as="geometry" />
        </mxCell>
        <mxCell id="Q-uiYUDnbDU2gFhlFFUQ-114" value="" style="endArrow=none;html=1;rounded=0;fontSize=14;" edge="1" parent="1">
          <mxGeometry width="50" height="50" relative="1" as="geometry">
            <mxPoint y="1250" as="sourcePoint" />
            <mxPoint x="910" y="1250" as="targetPoint" />
          </mxGeometry>
        </mxCell>
        <mxCell id="Q-uiYUDnbDU2gFhlFFUQ-115" value="" style="endArrow=classic;startArrow=classic;html=1;rounded=0;entryX=0.5;entryY=1;entryDx=0;entryDy=0;" edge="1" parent="1" target="Q-uiYUDnbDU2gFhlFFUQ-96">
          <mxGeometry width="50" height="50" relative="1" as="geometry">
            <mxPoint x="205" y="1250" as="sourcePoint" />
            <mxPoint x="90" y="1100" as="targetPoint" />
          </mxGeometry>
        </mxCell>
        <mxCell id="Q-uiYUDnbDU2gFhlFFUQ-116" value="" style="endArrow=classic;startArrow=classic;html=1;rounded=0;entryX=0.5;entryY=1;entryDx=0;entryDy=0;" edge="1" parent="1">
          <mxGeometry width="50" height="50" relative="1" as="geometry">
            <mxPoint x="480" y="1250" as="sourcePoint" />
            <mxPoint x="480" y="1090" as="targetPoint" />
          </mxGeometry>
        </mxCell>
        <mxCell id="Q-uiYUDnbDU2gFhlFFUQ-117" value="" style="endArrow=classic;startArrow=classic;html=1;rounded=0;entryX=0.5;entryY=1;entryDx=0;entryDy=0;" edge="1" parent="1">
          <mxGeometry width="50" height="50" relative="1" as="geometry">
            <mxPoint x="764.5" y="1250" as="sourcePoint" />
            <mxPoint x="764.5" y="1090" as="targetPoint" />
          </mxGeometry>
        </mxCell>
        <mxCell id="Q-uiYUDnbDU2gFhlFFUQ-118" value="&lt;h2 style=&quot;color: rgb(0, 0, 0); font-family: Helvetica; font-style: normal; font-variant-ligatures: normal; font-variant-caps: normal; letter-spacing: normal; orphans: 2; text-align: center; text-indent: 0px; text-transform: none; widows: 2; word-spacing: 0px; -webkit-text-stroke-width: 0px; background-color: rgb(248, 249, 250); text-decoration-thickness: initial; text-decoration-style: initial; text-decoration-color: initial;&quot;&gt;&lt;font style=&quot;font-size: 18px;&quot;&gt;eth2: 172.16.15.0/24&lt;/font&gt;&lt;/h2&gt;" style="text;whiteSpace=wrap;html=1;fontSize=18;" vertex="1" parent="1">
          <mxGeometry x="30" y="1230" width="200" height="100" as="geometry" />
        </mxCell>
        <mxCell id="Q-uiYUDnbDU2gFhlFFUQ-119" value="&lt;font style=&quot;font-size: 18px;&quot;&gt;- eth0: dùng để kết nối với internet&lt;br&gt;- eth1: dùng để làm ceph public, truy cập vào dashboard&lt;br&gt;- eth2: dùng để làm ceph replication&lt;/font&gt;" style="text;html=1;align=center;verticalAlign=middle;resizable=0;points=[];autosize=1;strokeColor=none;fillColor=none;fontSize=14;" vertex="1" parent="1">
          <mxGeometry x="140" y="1310" width="470" height="80" as="geometry" />
        </mxCell>
        <mxCell id="Q-uiYUDnbDU2gFhlFFUQ-120" value="ansible admin" style="whiteSpace=wrap;html=1;aspect=fixed;" vertex="1" parent="1">
          <mxGeometry x="-200" y="930" width="160" height="160" as="geometry" />
        </mxCell>
        <mxCell id="Q-uiYUDnbDU2gFhlFFUQ-121" value="eth0" style="whiteSpace=wrap;html=1;aspect=fixed;" vertex="1" parent="1">
          <mxGeometry x="-145" y="930" width="50" height="50" as="geometry" />
        </mxCell>
        <mxCell id="Q-uiYUDnbDU2gFhlFFUQ-122" value="eth1" style="whiteSpace=wrap;html=1;aspect=fixed;" vertex="1" parent="1">
          <mxGeometry x="-200" y="1040" width="50" height="50" as="geometry" />
        </mxCell>
        <mxCell id="Q-uiYUDnbDU2gFhlFFUQ-124" value="" style="endArrow=classic;startArrow=classic;html=1;rounded=0;exitX=0.5;exitY=0;exitDx=0;exitDy=0;" edge="1" parent="1">
          <mxGeometry width="50" height="50" relative="1" as="geometry">
            <mxPoint x="-120.5" y="930" as="sourcePoint" />
            <mxPoint x="-120.5" y="850" as="targetPoint" />
            <Array as="points">
              <mxPoint x="-120.5" y="900" />
            </Array>
          </mxGeometry>
        </mxCell>
        <mxCell id="Q-uiYUDnbDU2gFhlFFUQ-125" value="Mô hình 1 với 3 node: sủ dụng node 1 để cài ansible từ đó cài đặt cụm ceph trên 3 node 123" style="text;html=1;align=center;verticalAlign=middle;resizable=0;points=[];autosize=1;strokeColor=none;fillColor=none;fontSize=18;" vertex="1" parent="1">
          <mxGeometry x="-159" y="45" width="760" height="40" as="geometry" />
        </mxCell>
        <mxCell id="Q-uiYUDnbDU2gFhlFFUQ-126" value="&lt;font style=&quot;font-size: 14px;&quot;&gt;node 1&lt;/font&gt;" style="text;html=1;align=center;verticalAlign=middle;resizable=0;points=[];autosize=1;strokeColor=none;fillColor=none;fontSize=18;" vertex="1" parent="1">
          <mxGeometry x="85" y="290" width="70" height="40" as="geometry" />
        </mxCell>
        <mxCell id="Q-uiYUDnbDU2gFhlFFUQ-127" value="&lt;font style=&quot;font-size: 14px;&quot;&gt;node 2&lt;/font&gt;" style="text;html=1;align=center;verticalAlign=middle;resizable=0;points=[];autosize=1;strokeColor=none;fillColor=none;fontSize=18;" vertex="1" parent="1">
          <mxGeometry x="365" y="290" width="70" height="40" as="geometry" />
        </mxCell>
        <mxCell id="Q-uiYUDnbDU2gFhlFFUQ-128" value="&lt;font style=&quot;font-size: 14px;&quot;&gt;node 2&lt;/font&gt;" style="text;html=1;align=center;verticalAlign=middle;resizable=0;points=[];autosize=1;strokeColor=none;fillColor=none;fontSize=18;" vertex="1" parent="1">
          <mxGeometry x="645" y="290" width="70" height="40" as="geometry" />
        </mxCell>
        <mxCell id="Q-uiYUDnbDU2gFhlFFUQ-129" value="&lt;span style=&quot;color: rgb(0, 0, 0); font-family: Helvetica; font-size: 18px; font-style: normal; font-variant-ligatures: normal; font-variant-caps: normal; font-weight: 400; letter-spacing: normal; orphans: 2; text-align: center; text-indent: 0px; text-transform: none; widows: 2; word-spacing: 0px; -webkit-text-stroke-width: 0px; background-color: rgb(248, 249, 250); text-decoration-thickness: initial; text-decoration-style: initial; text-decoration-color: initial; float: none; display: inline !important;&quot;&gt;Mô hình 2 với 4 node: sủ dụng node 1 để cài ansible từ đó cài đặt cụm ceph trên 3 node 234&lt;/span&gt;" style="text;whiteSpace=wrap;html=1;fontSize=14;" vertex="1" parent="1">
          <mxGeometry x="-240" y="740" width="560" height="70" as="geometry" />
        </mxCell>
        <mxCell id="Q-uiYUDnbDU2gFhlFFUQ-130" value="&lt;font style=&quot;font-size: 14px;&quot;&gt;node 1&lt;/font&gt;" style="text;html=1;align=center;verticalAlign=middle;resizable=0;points=[];autosize=1;strokeColor=none;fillColor=none;fontSize=18;" vertex="1" parent="1">
          <mxGeometry x="-155" y="1010" width="70" height="40" as="geometry" />
        </mxCell>
        <mxCell id="Q-uiYUDnbDU2gFhlFFUQ-131" value="&lt;font style=&quot;font-size: 14px;&quot;&gt;node 2&lt;/font&gt;" style="text;html=1;align=center;verticalAlign=middle;resizable=0;points=[];autosize=1;strokeColor=none;fillColor=none;fontSize=18;" vertex="1" parent="1">
          <mxGeometry x="120" y="1010" width="70" height="40" as="geometry" />
        </mxCell>
        <mxCell id="Q-uiYUDnbDU2gFhlFFUQ-132" value="&lt;font style=&quot;font-size: 14px;&quot;&gt;node 3&lt;/font&gt;" style="text;html=1;align=center;verticalAlign=middle;resizable=0;points=[];autosize=1;strokeColor=none;fillColor=none;fontSize=18;" vertex="1" parent="1">
          <mxGeometry x="395" y="1010" width="70" height="40" as="geometry" />
        </mxCell>
        <mxCell id="Q-uiYUDnbDU2gFhlFFUQ-133" value="&lt;font style=&quot;font-size: 14px;&quot;&gt;node 4&lt;/font&gt;" style="text;html=1;align=center;verticalAlign=middle;resizable=0;points=[];autosize=1;strokeColor=none;fillColor=none;fontSize=18;" vertex="1" parent="1">
          <mxGeometry x="675" y="1010" width="70" height="40" as="geometry" />
        </mxCell>
      </root>
    </mxGraphModel>
  </diagram>
</mxfile>
